<svg aria-hidden="true" style="position: absolute; width: 0; height: 0; overflow: hidden;" version="1.1" xmlns="http://www.w3.org/2000/svg" xmlns:xlink="http://www.w3.org/1999/xlink">
<defs>
<symbol id="icon-arrow-down" viewBox="0 0 32 32">
<path  d="M3.76 9.143l-3.76 3.479 16 14.807 16-14.807-3.76-3.479-12.24 11.303-12.24-11.303z"></path>
</symbol>
<symbol id="icon-arrow-up" viewBox="0 0 32 32">
<path d="M3.76 25.143l-3.76-3.479 16-14.807 16 14.807-3.76 3.479-12.24-11.303-12.24 11.303z"></path>
</symbol>
<symbol id="icon-calendar" viewBox="0 0 32 32">
<path d="M22.667 4h5.333c0.736 0 1.333 0.597 1.333 1.333v0 21.334c0 0.736-0.597 1.333-1.333 1.333v0h-24c-0.736 0-1.333-0.597-1.333-1.333v0-21.334c0-0.736 0.597-1.333 1.333-1.333v0h5.333v-2.667h2.667v2.667h8v-2.667h2.667v2.667zM26.667 14.667h-21.334v10.666h21.334v-10.666zM20 6.667h-8v2.666h-2.667v-2.666h-4v5.333h21.334v-5.333h-4v2.666h-2.667v-2.666zM8 17.333h2.667v2.667h-2.667v-2.667zM14.667 17.333h2.666v2.667h-2.666v-2.667zM21.333 17.333h2.667v2.667h-2.667v-2.667z"></path>
</symbol>
<symbol id="icon-clicked_heart" viewBox="0 0 32 32">
<path fill="#4b48da" style="fill: var(--color3, #4b48da)" d="M9.334 4c-3.682 0-6.668 2.954-6.668 6.6 0 2.942 1.168 9.926 12.652 16.986 0.194 0.12 0.43 0.191 0.682 0.191s0.488-0.071 0.688-0.194l-0.006 0.003c11.484-7.060 12.652-14.044 12.652-16.986 0-3.646-2.986-6.6-6.668-6.6-3.68 0-6.666 4-6.666 4s-2.986-4-6.666-4z"></path>
</symbol>
<symbol id="icon-unclicked_heart" viewBox="0 0 32 32">
<path fill="none" stroke="#4440f7" style="stroke: var(--color2, #4440f7)" stroke-linejoin="round" stroke-linecap="round" stroke-miterlimit="4" stroke-width="2" d="M9.334 4c-3.682 0-6.668 2.954-6.668 6.6 0 2.942 1.168 9.926 12.652 16.986 0.194 0.12 0.43 0.191 0.682 0.191s0.488-0.071 0.688-0.194l-0.006 0.003c11.484-7.060 12.652-14.044 12.652-16.986 0-3.646-2.986-6.6-6.668-6.6-3.68 0-6.666 4-6.666 4s-2.986-4-6.666-4z"></path>
</symbol>
<symbol id="icon-geolocation" viewBox="0 0 24 32">
<path fill="#fff" style="fill: var(--color1, #fff)" d="M12.16 0.881c-6.557 0.008-11.871 5.321-11.88 11.878v0.001c0 0.005 0 0.012 0 0.018 0 2.685 0.9 5.16 2.414 7.14l-0.021-0.028s0.324 0.426 0.376 0.486l9.11 10.747 9.114-10.749c0.047-0.058 0.372-0.483 0.372-0.483l0.001-0.004c1.494-1.951 2.394-4.425 2.394-7.11 0-0.005 0-0.010 0-0.015v0.001c-0.007-6.559-5.322-11.874-11.88-11.881h-0.001zM12.16 17.080c-2.386 0-4.321-1.934-4.321-4.321s1.934-4.321 4.321-4.321v0c2.386 0 4.32 1.934 4.32 4.32s-1.934 4.32-4.32 4.32v0z"></path>
</symbol>
<symbol id="icon-already-read" viewBox="0 0 32 32">
<path fill="#00dd73" style="fill: var(--color1, #00dd73)" d="M28.779 6.39c-0.277 0.008-0.54 0.124-0.733 0.323l-16.312 16.313-6.713-6.713c-0.098-0.102-0.216-0.184-0.346-0.24s-0.27-0.086-0.412-0.088c-0.142-0.001-0.283 0.025-0.414 0.079s-0.251 0.133-0.351 0.233c-0.1 0.1-0.18 0.22-0.233 0.351s-0.081 0.272-0.079 0.414c0.001 0.142 0.031 0.282 0.087 0.412s0.138 0.248 0.24 0.346l7.467 7.467c0.2 0.2 0.471 0.312 0.754 0.312s0.554-0.112 0.754-0.312l17.067-17.067c0.154-0.15 0.259-0.343 0.302-0.553s0.021-0.429-0.063-0.627c-0.084-0.198-0.225-0.366-0.406-0.482s-0.393-0.175-0.608-0.168z"></path>
</symbol>
</defs>
</svg>
