<svg version="1.0" xmlns="http://www.w3.org/2000/svg" width="346.667" height="346.667" viewBox="0 0 260 260"><path d="M120.5 20.1c-2.2.4-6.3.9-9.2 1.3-2.8.3-6.4 1.1-8 1.7-1.5.6-2.8.9-2.8.8 0-.7-14.6 4.8-19.8 7.5-6.4 3.3-15.5 9-19.5 12.2-5.5 4.5-18.1 18-21.9 23.7-3.5 5-10.3 17.4-10.8 19.7-.1.3-.9 2.2-1.8 4.4-.9 2.1-1.7 4.4-1.7 5.1 0 .7-.6 3-1.4 5.2-3 8.5-4.5 24.5-3.4 37.5.5 6.6 1.1 7.6 3.2 5.6 1.1-1.2 1.3-2.7.7-6.9-.4-3-.6-6.5-.6-7.9.6-9.4 1.9-19.4 3.2-24.5.8-3.3 1.6-6.5 1.8-7 .3-1.2 1.2-3.8 3.6-9.3 1-2.3 1.5-4.2 1.1-4.2-.4 0-.2-.4.3-.8.6-.4 2.1-2.7 3.4-5.2 11.8-22.2 34.9-41.6 58.6-49.3 13.2-4.3 25.8-6.3 37.3-5.9 5.5.2 9.6-1.8 7.1-3.4-1.6-.9-14.5-1.2-19.4-.3zM180.8 26.7c-.2 1.3 1.3 2.8 5.1 5 2.9 1.8 5.7 3.3 6.2 3.3s.9.4.9.8 1.4 1.6 3.2 2.7c7.4 4.3 22.9 21.1 30.6 33 1.1 1.8 7.2 14.2 9.3 19 1.4 3.3 4.1 13.9 5.8 23 1 5.3.7 31.3-.4 35.5-.3 1.4-.9 3.8-1.1 5.5-1.3 7.4-7.9 24-13.2 33-6.7 11.5-18.2 24.3-29.7 32.9-3.8 2.9-7.4 5.5-8 5.7-4 1.7-8.5 5.4-8.5 7 0 1 .4 1.9.9 1.9 1.4 0 14.3-7.6 16.8-9.9 1.2-1.2 2.7-2.1 3.2-2.1 1.4 0 16.8-15.7 21.5-22 2.2-3 4.3-5.7 4.6-6 .3-.3 1.1-1.6 1.7-3 .7-1.4 2.6-4.8 4.2-7.7 1.6-2.8 2.7-5.4 2.4-5.7-.4-.3-.1-.6.5-.6.7 0 1.2-.4 1.2-.9s.5-2.2 1.2-3.8c.6-1.5 1.3-3.3 1.4-3.8.9-2.7 3.6-12.2 4-14 .2-1.1.7-3.1 1-4.5 1.2-5.2 1.6-30.7.5-37.5-1.7-10.6-1.9-11.6-4.6-19.9-5.4-16.4-15.9-33.6-28.5-46.7-5.8-5.9-19.9-16.3-27.7-20.3-4-2-4.1-2-4.5.1z"/><path d="M116.8 27.6c-.2.2-2.2.6-4.4.8-2.1.3-6.4 1.2-9.4 2.1-3 .9-6.5 1.9-7.8 2.2-1.2.3-2.5.9-2.8 1.4-.3.5-1.6.9-3 .9-1.3 0-2.4.4-2.4 1 0 .5-.6 1-1.3 1C82.6 37 64 50 57 57 46.6 67.6 35 86.1 32.4 96.4c-.6 2.5-.5 2.6 1.9 1.5 1.7-.8 3.3-3.1 5.2-8C44.9 76 59.3 58.4 73 48.9c7.2-5 16.5-9.7 25-12.5 3-1.1 5.7-2.1 6-2.4.3-.3 1.6-.6 3-.7 1.4-.2 4.1-.6 6-1 3.8-.8 29.5-.8 34.5 0 2.4.3 8.5 2 15.5 4.2 4.5 1.4 17.4 7.8 18.2 8.9.4.6.8.8.8.4s.8-.1 1.8.6c7.7 6.4 10.8 8.2 13.1 7.6 2.4-.5 2.3-.7-2-4.1-19.3-15.5-40.4-22.8-65.6-22.8-6.6 0-12.3.2-12.5.5z"/><path d="M116.7 33.6c-.2.2-2.1.6-4.3 1-2.1.3-4.2.8-4.7 1.1-.4.2-2 .7-3.5 1-4.1.8-4.5.9-7.2 2.1-2.3 1-4.5 1.7-6.2 2.1-1.7.4-16.6 9.6-20.3 12.5-11 8.6-25.4 26.3-27.1 33.3-.4 1.3-1 2.3-1.5 2.3s-.8.3-.7.7c0 .5-.1 1.5-.5 2.3-2.5 6.6-4.6 13-4.2 13 .3 0 .1.8-.4 1.8-1.7 3.3-2.5 10.6-2.5 23.7.1 13.1.8 19.5 2.5 22.7.5 1 .8 1.8.5 1.8-.7 0 2.7 9.6 5.9 16.5 2.5 5.6 9.1 16.2 12.2 19.5 3.8 4.2 12.3 12.7 13.9 14 9.2 7.2 15.9 11.1 26.4 15.3 7.4 2.9 9.2 3.4 21 5.3 9.1 1.5 25.5 1.2 33-.6 12-2.8 11-2.5 13.5-3.5 7.7-2.9 19.3-9.3 25.1-13.8 7.4-5.7 16.4-14.4 16.4-15.8 0-.5.4-.9.9-.9 1.3 0 9.2-12.3 12.5-19.2 4.4-9.6 5-11.1 5.9-16 .3-1.5.8-3.1 1-3.6 2.3-3.6 2.9-33.3.8-41.2-.6-2.5-1.4-5.5-1.7-6.8-1.7-8.1-8.9-22.9-15.2-31.4-14.5-19.6-35.5-32.8-60.7-38.4-3.2-.7-30.2-1.4-30.8-.8z"/><path d="M54.9 39.7c-10.2 8.6-19.7 19.8-26.2 31.1-2 3.5-3.7 6.5-3.7 6.6 0 .2-1.2 3-2.7 6.2-1.5 3.3-2.8 6.1-2.8 6.4-.1.3-.9 3-1.9 6.1-3.2 10.5-3.7 14.1-4.3 29.7-.7 16.8 1.7 33.2 6.4 44.2 7.2 16.8 12.1 25.3 20.7 35.5 5.4 6.4 6.6 7.7 14 14.2 5.3 4.8 6.6 5.2 6.6 2.4 0-1.1-4.2-6.1-9.9-11.8-14.2-14.2-22-26.3-27.9-43.8-4.9-14.2-5.6-19.1-5.6-37 0-14.7.2-16.4 3.4-28.5 2.9-10.7 3-10.9 7.7-20.5 6.5-13.3 10.6-19 22.5-30.9 5.4-5.4 9.8-10.7 9.8-11.7 0-2.7-1.1-2.4-6.1 1.8zM228.3 85.1c-.9.9-.6 2.9 1.2 7.8 4.3 12 6.7 25.4 6.9 38.1.1 4.5-1.7 18.3-3.1 23.5-.8 3.3-1.6 6.4-1.8 7-.1.5-.7 2.3-1.3 3.8-.7 1.6-1.2 3.3-1.2 3.8 0 2.5-11.2 21.4-16.5 27.8-4.1 5.1-14.3 15.1-15.3 15.1-.6 0-1.2.3-1.4.8-1.2 2.9-19.9 13.7-29.6 17.1-9.4 3.3-26.2 6.5-34.7 6.5-5.6 0-21.3-1.8-26-3.1-3.3-.8-6.4-1.6-7-1.8-.5-.1-2.3-.7-4-1.4-2.5-1.1-3.1-1-4.2.6-1.2 1.6-.9 1.9 3.9 3.6 2.9 1 6 2 6.8 2.2 8.2 1.9 11.5 2.5 17.5 3.1 13.8 1.3 29.3.1 40.5-3.1.3-.1 1.9-.5 3.5-1 1.7-.5 4.6-1.5 6.5-2.4 1.9-.8 3.7-1.5 4-1.6 1.7-.2 13-6.1 13-6.7 0-.5.6-.8 1.4-.8.8 0 2.1-.6 2.8-1.3.7-.7 2.6-2.1 4.2-3.1s6.5-5.3 10.8-9.5c4.4-4.2 8.4-7.8 8.9-7.9.5-.2.9-.8.9-1.3 0-.6.9-2 2.1-3.2 2.6-2.7 11.5-17.8 11.2-18.9-.2-.4 0-.8.5-.8 1.1 0 6.3-13 7.8-19.5 2.7-11.5 3.7-20 3.6-29-.1-8.5-1.5-20.4-3-25-.3-1.1-.6-2.2-.7-2.5-1.3-6.3-5.7-18-6.7-18-.2 0-.9.5-1.5 1.1z"/><path d="M224.5 160.2c-2.2 6.8-8.4 20.1-9.9 21-.6.5-.7.8-.1.8.7 0 .7.3 0 .8-.6.4-2.4 2.7-4 5.1-4 5.9-17.7 19.6-22.9 22.8-2.2 1.4-4.3 2.9-4.6 3.2-.3.3-3.9 2.3-8 4.3-8.1 4.1-19.9 8.2-27 9.5-5 .9-28 .9-35 0-8.3-1-34-10.8-34-12.9 0-.5-.4-.7-.9-.4-.5.4-1.1.2-1.3-.2-.1-.4-2.3-2.2-4.8-3.9-2.5-1.8-6.3-4.8-8.5-6.7-4.1-3.7-5.9-4.3-7-2.6-.8 1.2 6.2 7.8 13.5 12.8 3 2 5.7 4 6 4.3.9 1 16.7 8.4 20.5 9.5 15.6 4.6 16.3 4.7 33.5 4.8 15 0 16.4-.1 26.6-2.8 8.2-2.1 25.5-9.4 27.4-11.5.3-.3 3-2.3 6-4.3 16.6-11.2 30.4-29.8 37.9-51.3 2.6-7.3 2.6-7.5.2-7.5-1.5 0-2.4 1.3-3.6 5.2z"/></svg>