<svg aria-hidden="true" style="width:0;height:0;position:absolute;overflow:hidden" xmlns="http://www.w3.org/2000/svg"><defs><symbol id="icon-search-icon" viewBox="0 0 34 32"><path d="M14.667 26.5c2.958-.001 5.831-.941 8.162-2.673l7.327 6.96 2.357-2.239-7.327-6.96c1.823-2.214 2.814-4.944 2.815-7.755 0-6.984-5.982-12.667-13.333-12.667S1.335 6.849 1.335 13.833 7.317 26.5 14.668 26.5zm0-22.167c5.515 0 10 4.261 10 9.5s-4.485 9.5-10 9.5-10-4.261-10-9.5 4.485-9.5 10-9.5z"/></symbol><symbol id="icon-dark" viewBox="0 0 32 32"><path fill="none" stroke="#5f6775" style="stroke:var(--color1,#5f6775)" stroke-linejoin="round" stroke-linecap="round" stroke-width="2.526" d="M29.263 17.164A13.262 13.262 0 0 1 3.111 18.83 13.263 13.263 0 0 1 14.836 2.737a10.318 10.318 0 0 0 1.001 13.426 10.317 10.317 0 0 0 13.426 1.001v0z"/></symbol><symbol id="icon-light" viewBox="0 0 32 32"><path fill="none" stroke="#4b48db" style="stroke:var(--color2,#4b48db)" stroke-linejoin="round" stroke-linecap="round" stroke-width="2.286" d="M16 1.778v2.586m0 23.272v2.586M5.941 5.941l1.836 1.836m16.447 16.446 1.836 1.836M1.778 16h2.586m23.273 0h2.586M5.941 26.059l1.836-1.836M24.224 7.777l1.836-1.836M22.465 16a6.465 6.465 0 1 1-12.93 0 6.465 6.465 0 0 1 12.93 0z"/></symbol><symbol id="icon-burger-btn" viewBox="0 0 30 30"><path d="M2 6h28v6H2zm0 8h28v6H2zm0 8h28v6H2z"/></symbol></defs></svg>