<svg aria-hidden="true" style="width:0;height:0;position:absolute;overflow:hidden" xmlns="http://www.w3.org/2000/svg"><defs><symbol id="icon-arrow-down" viewBox="0 0 32 32"><path d="M3.76 9.143 0 12.622l16 14.807 16-14.807-3.76-3.479L16 20.446 3.76 9.143z"/></symbol><symbol id="icon-arrow-up" viewBox="0 0 32 32"><path fill="#4440f6" style="fill:var(--color1,#4440f6)" d="M3.76 25.143 0 21.664 16 6.857l16 14.807-3.76 3.479L16 13.84 3.76 25.143z"/></symbol><symbol id="icon-calendar" viewBox="0 0 32 32"><path d="M22.667 4H28c.736 0 1.333.597 1.333 1.333v21.334c0 .736-.597 1.333-1.333 1.333H4a1.333 1.333 0 0 1-1.333-1.333V5.333C2.667 4.597 3.264 4 4 4h5.333V1.333H12V4h8V1.333h2.667V4zm4 10.667H5.333v10.666h21.334V14.667zm-6.667-8h-8v2.666H9.333V6.667h-4V12h21.334V6.667h-4v2.666H20V6.667zM8 17.333h2.667V20H8v-2.667zm6.667 0h2.666V20h-2.666v-2.667zm6.666 0H24V20h-2.667v-2.667z"/></symbol><symbol id="icon-clicked_heart" viewBox="0 0 32 32"><path fill="#4b48da" style="fill:var(--color3,#4b48da)" d="M9.334 4c-3.682 0-6.668 2.954-6.668 6.6 0 2.942 1.168 9.926 12.652 16.986a1.31 1.31 0 0 0 1.37-.003l-.006.003c11.484-7.06 12.652-14.044 12.652-16.986 0-3.646-2.986-6.6-6.668-6.6C18.986 4 16 8 16 8s-2.986-4-6.666-4z"/></symbol><symbol id="icon-unclicked_heart" viewBox="0 0 32 32"><path fill="none" stroke="#4440f7" style="stroke:var(--color2,#4440f7)" stroke-linejoin="round" stroke-linecap="round" stroke-width="2" d="M9.334 4c-3.682 0-6.668 2.954-6.668 6.6 0 2.942 1.168 9.926 12.652 16.986a1.31 1.31 0 0 0 1.37-.003l-.006.003c11.484-7.06 12.652-14.044 12.652-16.986 0-3.646-2.986-6.6-6.668-6.6C18.986 4 16 8 16 8s-2.986-4-6.666-4z"/></symbol><symbol id="icon-circle-right" viewBox="0 0 32 32"><path d="M16 0C7.163 0 0 7.163 0 16s7.163 16 16 16 16-7.163 16-16S24.837 0 16 0zm0 29C8.82 29 3 23.18 3 16S8.82 3 16 3s13 5.82 13 13-5.82 13-13 13z"/><path d="m11.086 22.086 2.829 2.829 8.914-8.914-8.914-8.914-2.828 2.828 6.086 6.086z"/></symbol></defs></svg>