<?xml version="1.0" standalone="no"?>
<!DOCTYPE svg PUBLIC "-//W3C//DTD SVG 20010904//EN"
 "http://www.w3.org/TR/2001/REC-SVG-20010904/DTD/svg10.dtd">
<svg version="1.0" xmlns="http://www.w3.org/2000/svg"
 width="260.000000pt" height="260.000000pt" viewBox="0 0 260.000000 260.000000"
 preserveAspectRatio="xMidYMid meet">
<metadata>
Created by potrace 1.14, written by Peter Selinger 2001-2017
</metadata>
<g transform="translate(0.000000,260.000000) scale(0.100000,-0.100000)"
fill="#000000" stroke="none">
<path d="M1205 2399 c-22 -4 -63 -9 -92 -13 -28 -3 -64 -11 -80 -17 -15 -6
-28 -9 -28 -8 0 7 -146 -48 -198 -75 -64 -33 -155 -90 -195 -122 -55 -45 -181
-180 -219 -237 -35 -50 -103 -174 -108 -197 -1 -3 -9 -22 -18 -44 -9 -21 -17
-44 -17 -51 0 -7 -6 -30 -14 -52 -30 -85 -45 -245 -34 -375 5 -66 11 -76 32
-56 11 12 13 27 7 69 -4 30 -6 65 -6 79 6 94 19 194 32 245 8 33 16 65 18 70
3 12 12 38 36 93 10 23 15 42 11 42 -4 0 -2 4 3 8 6 4 21 27 34 52 118 222
349 416 586 493 132 43 258 63 373 59 55 -2 96 18 71 34 -16 9 -145 12 -194 3z"/>
<path d="M1808 2333 c-2 -13 13 -28 51 -50 29 -18 57 -33 62 -33 5 0 9 -4 9
-8 0 -4 14 -16 32 -27 74 -43 229 -211 306 -330 11 -18 72 -142 93 -190 14
-33 41 -139 58 -230 10 -53 7 -313 -4 -355 -3 -14 -9 -38 -11 -55 -13 -74 -79
-240 -132 -330 -67 -115 -182 -243 -297 -329 -38 -29 -74 -55 -80 -57 -40 -17
-85 -54 -85 -70 0 -10 4 -19 9 -19 14 0 143 76 168 99 12 12 27 21 32 21 14 0
168 157 215 220 22 30 43 57 46 60 3 3 11 16 17 30 7 14 26 48 42 77 16 28 27
54 24 57 -4 3 -1 6 5 6 7 0 12 4 12 9 0 5 5 22 12 38 6 15 13 33 14 38 9 27
36 122 40 140 2 11 7 31 10 45 12 52 16 307 5 375 -17 106 -19 116 -46 199
-54 164 -159 336 -285 467 -58 59 -199 163 -277 203 -40 20 -41 20 -45 -1z"/>
<path d="M1168 2324 c-2 -2 -22 -6 -44 -8 -21 -3 -64 -12 -94 -21 -30 -9 -65
-19 -78 -22 -12 -3 -25 -9 -28 -14 -3 -5 -16 -9 -30 -9 -13 0 -24 -4 -24 -10
0 -5 -6 -10 -13 -10 -31 0 -217 -130 -287 -200 -104 -106 -220 -291 -246 -394
-6 -25 -5 -26 19 -15 17 8 33 31 52 80 54 139 198 315 335 410 72 50 165 97
250 125 30 11 57 21 60 24 3 3 16 6 30 7 14 2 41 6 60 10 38 8 295 8 345 0 24
-3 85 -20 155 -42 45 -14 174 -78 182 -89 4 -6 8 -8 8 -4 0 4 8 1 18 -6 77
-64 108 -82 131 -76 24 5 23 7 -20 41 -193 155 -404 228 -656 228 -66 0 -123
-2 -125 -5z"/>
<path d="M1167 2264 c-2 -2 -21 -6 -43 -10 -21 -3 -42 -8 -47 -11 -4 -2 -20
-7 -35 -10 -41 -8 -45 -9 -72 -21 -23 -10 -45 -17 -62 -21 -17 -4 -166 -96
-203 -125 -110 -86 -254 -263 -271 -333 -4 -13 -10 -23 -15 -23 -5 0 -8 -3 -7
-7 0 -5 -1 -15 -5 -23 -25 -66 -46 -130 -42 -130 3 0 1 -8 -4 -18 -17 -33 -25
-106 -25 -237 1 -131 8 -195 25 -227 5 -10 8 -18 5 -18 -7 0 27 -96 59 -165
25 -56 91 -162 122 -195 38 -42 123 -127 139 -140 92 -72 159 -111 264 -153
74 -29 92 -34 210 -53 91 -15 255 -12 330 6 120 28 110 25 135 35 77 29 193
93 251 138 74 57 164 144 164 158 0 5 4 9 9 9 13 0 92 123 125 192 44 96 50
111 59 160 3 15 8 31 10 36 23 36 29 333 8 412 -6 25 -14 55 -17 68 -17 81
-89 229 -152 314 -145 196 -355 328 -607 384 -32 7 -302 14 -308 8z"/>
<path d="M549 2203 c-102 -86 -197 -198 -262 -311 -20 -35 -37 -65 -37 -66 0
-2 -12 -30 -27 -62 -15 -33 -28 -61 -28 -64 -1 -3 -9 -30 -19 -61 -32 -105
-37 -141 -43 -297 -7 -168 17 -332 64 -442 72 -168 121 -253 207 -355 54 -64
66 -77 140 -142 53 -48 66 -52 66 -24 0 11 -42 61 -99 118 -142 142 -220 263
-279 438 -49 142 -56 191 -56 370 0 147 2 164 34 285 29 107 30 109 77 205 65
133 106 190 225 309 54 54 98 107 98 117 0 27 -11 24 -61 -18z"/>
<path d="M2283 1749 c-9 -9 -6 -29 12 -78 43 -120 67 -254 69 -381 1 -45 -17
-183 -31 -235 -8 -33 -16 -64 -18 -70 -1 -5 -7 -23 -13 -38 -7 -16 -12 -33
-12 -38 0 -25 -112 -214 -165 -278 -41 -51 -143 -151 -153 -151 -6 0 -12 -3
-14 -8 -12 -29 -199 -137 -296 -171 -94 -33 -262 -65 -347 -65 -56 0 -213 18
-260 31 -33 8 -64 16 -70 18 -5 1 -23 7 -40 14 -25 11 -31 10 -42 -6 -12 -16
-9 -19 39 -36 29 -10 60 -20 68 -22 82 -19 115 -25 175 -31 138 -13 293 -1
405 31 3 1 19 5 35 10 17 5 46 15 65 24 19 8 37 15 40 16 17 2 130 61 130 67
0 5 6 8 14 8 8 0 21 6 28 13 7 7 26 21 42 31 16 10 65 53 108 95 44 42 84 78
89 79 5 2 9 8 9 13 0 6 9 20 21 32 26 27 115 178 112 189 -2 4 0 8 5 8 11 0
63 130 78 195 27 115 37 200 36 290 -1 85 -15 204 -30 250 -3 11 -6 22 -7 25
-13 63 -57 180 -67 180 -2 0 -9 -5 -15 -11z"/>
<path d="M2245 998 c-22 -68 -84 -201 -99 -210 -6 -5 -7 -8 -1 -8 7 0 7 -3 0
-8 -6 -4 -24 -27 -40 -51 -40 -59 -177 -196 -229 -228 -22 -14 -43 -29 -46
-32 -3 -3 -39 -23 -80 -43 -81 -41 -199 -82 -270 -95 -50 -9 -280 -9 -350 0
-83 10 -340 108 -340 129 0 5 -4 7 -9 4 -5 -4 -11 -2 -13 2 -1 4 -23 22 -48
39 -25 18 -63 48 -85 67 -41 37 -59 43 -70 26 -8 -12 62 -78 135 -128 30 -20
57 -40 60 -43 9 -10 167 -84 205 -95 156 -46 163 -47 335 -48 150 0 164 1 266
28 82 21 255 94 274 115 3 3 30 23 60 43 166 112 304 298 379 513 26 73 26 75
2 75 -15 0 -24 -13 -36 -52z"/>
</g>
</svg>
